#!OML:ASF H:\Terrain\Patient Classification 1\Walking\liu\liu.ASF
:FULLY-SPECIFIED
:DEGREES
112
root 9.34885 16.5894 -16.9515 4.98495 2.64308 3.76428
lowerback -3.74406 -2.90816 -5.73689
upperback 0.263375 -3.66278 1.68542
thorax 2.84512 -1.92692 4.72527
lowerneck -21.6652 -3.31546 -12.5373
upperneck 20.0095 -3.55156 12.4456
head 10.4439 -1.12985 6.0791
rclavicle 1.43622e-014 7.95139e-016
rhumerus -44.6475 12.7734 -89.2286
rradius 31.8439
rwrist -12.2978
rhand -32.5605 -13.8361
rfingers 7.12502
rthumb -5.78991 -43.737
lclavicle 1.43622e-014 7.95139e-016
lhumerus -11.697 -20.8875 88.8671
lradius 30.1848
lwrist 4.89934
lhand -11.8521 -25.6211
lfingers 7.12502
lthumb 14.1995 3.87359
rfemur -34.5345 -0.932505 17.6909
rtibia 44.8117
rfoot -15.9666 -10.7593
rtoes -21.1532
lfemur -4.85137 3.91277 -29.6631
ltibia 16.126
lfoot -15.9836 3.78351
ltoes -0.245254
113
root 9.35262 16.5736 -16.8097 5.1176 2.81329 3.88429
lowerback -3.86043 -2.96319 -5.84111
upperback 0.216136 -3.72565 1.69108
thorax 2.87673 -1.95957 4.78043
lowerneck -21.5733 -3.31567 -12.4628
upperneck 19.9998 -3.54948 12.2959
head 10.4183 -1.14283 6.00789
rclavicle 4.47266e-015 -1.03368e-014
rhumerus -44.8716 12.5474 -89.0736
rradius 31.7793
rwrist -12.1743
rhand -29.8727 -23.2931
rfingers 7.12502
rthumb -3.19455 -53.2489
lclavicle 4.47266e-015 -1.03368e-014
lhumerus -11.6444 -21.0605 88.9713
lradius 31.0608
lwrist 5.2538
lhand -12.0084 -25.3929
lfingers 7.12502
lthumb 14.0489 4.11232
rfemur -34.7151 -0.531235 17.3409
rtibia 42.3972
rfoot -15.9762 -10.3073
rtoes -20.0001
lfemur -3.89648 3.81289 -29.7393
ltibia 15.1173
lfoot -15.77 3.64818
ltoes -0.786122
114
root 9.35573 16.5723 -16.6697 5.12812 3.10435 3.99091
lowerback -3.79611 -3.0626 -5.92378
upperback 0.23006 -3.85744 1.66717
thorax 2.87595 -2.02673 4.79428
lowerneck -21.7917 -3.32066 -12.2368
upperneck 20.1114 -3.54016 11.9988
head 10.4872 -1.14996 5.86424
rclavicle 4.62174e-015 5.56597e-015
rhumerus -45.1568 12.5353 -89.1393
rradius 31.7937
rwrist -12.3286
rhand -30.3439 -26.6172
rfingers 7.12502
rthumb -3.6496 -56.5657
lclavicle 4.62174e-015 5.56597e-015
lhumerus -11.4324 -21.7935 88.9033
lradius 31.8455
lwrist 6.12709
lhand -12.4141 -25.431
lfingers 7.12502
lthumb 13.6579 4.10084
rfemur -34.748 0.166223 16.8924
rtibia 40.0635
rfoot -16.1106 -10.3941
rtoes -18.3637
lfemur -2.76048 3.45115 -29.8003
ltibia 13.9914
lfoot -15.6174 3.81039
ltoes -0.776848
115
root 9.35984 16.5868 -16.5298 5.23706 3.37995 3.98166
lowerback -3.86493 -3.20345 -5.84412
upperback 0.280092 -4.04285 1.62133
thorax 2.98154 -2.12176 4.68131
lowerneck -22.2573 -3.23768 -11.8181
upperneck 20.3152 -3.45298 11.7055
head 10.6214 -1.09991 5.70746
rclavicle 2.95195e-014 -7.15625e-015
rhumerus -45.4169 12.7953 -89.4389
rradius 31.9331
rwrist -12.5533
rhand -30.4081 -28.1086
rfingers 7.12502
rthumb -3.71153 -58.056
lclavicle 2.95195e-014 -7.15625e-015
lhumerus -11.0481 -22.7073 88.5334
lradius 32.6334
lwrist 7.19799
lhand -12.4988 -25.5237
lfingers 7.12502
lthumb 13.5763 4.01367
rfemur -34.9021 1.00039 16.4813
rtibia 37.831
rfoot -16.3878 -10.4176
rtoes -17.8473
lfemur -1.67614 2.90834 -29.7548
ltibia 12.7088
lfoot -15.6892 4.04348
ltoes 0.68315
116
root 9.36578 16.5903 -16.3867 5.41874 3.6572 4.10265
lowerback -4.06187 -3.31186 -5.91344
upperback 0.265514 -4.17296 1.62729
thorax 3.09928 -2.19069 4.70493
lowerneck -21.8519 -3.2287 -12.1518
upperneck 19.9552 -3.44611 12.1009
head 10.4291 -1.08526 5.89677
rclavicle -1.09332e-015 -1.59028e-015
rhumerus -45.6174 12.7563 -89.3003
rradius 32.0172
rwrist -12.5428
rhand -28.927 -30.1894
rfingers 7.12502
rthumb -2.28119 -60.157
lclavicle -1.09332e-015 -1.59028e-015
lhumerus -10.929 -23.0952 88.5493
lradius 33.445
lwrist 7.63507
lhand -12.2734 -25.48
lfingers 7.12502
lthumb 13.7935 4.04276
rfemur -35.1374 1.65727 15.9221
rtibia 35.6812
rfoot -16.8003 -10.1847
rtoes -16.9293
lfemur -0.459021 2.71426 -29.8486
ltibia 11.0766
lfoot -15.4014 3.97098
ltoes 1.18437
117
root 9.36822 16.5843 -16.2364 5.67567 3.82882 4.28832
lowerback -4.38826 -3.3486 -6.0885
upperback 0.191344 -4.19517 1.64727
thorax 3.22306 -2.2063 4.80606
lowerneck -21.2562 -3.2726 -12.7471
upperneck 19.5359 -3.48685 12.6623
head 10.1969 -1.09961 6.18194
rclavicle 1.34677e-014 8.74653e-015
rhumerus -45.8034 12.4453 -88.9482
rradius 31.9576
rwrist -12.3996
rhand -28.1442 -30.9158
rfingers 7.12502
rthumb -1.52515 -60.8901
lclavicle 1.34677e-014 8.74653e-015
lhumerus -10.8701 -23.8995 88.6769
lradius 34.1602
lwrist 8.33584
lhand -12.5513 -25.5222
lfingers 7.12502
lthumb 13.5257 4.0185
rfemur -35.5021 2.36917 15.2736
rtibia 33.6492
rfoot -17.5171 -9.82383
rtoes -15.9089
lfemur 1.01228 2.76561 -29.9981
ltibia 8.87037
lfoot -14.5736 3.86925
ltoes 0.26309
118
root 9.3642 16.5869 -16.084 5.87408 3.92115 4.24844
lowerback -4.60936 -3.42168 -6.09353
upperback 0.135449 -4.28117 1.69129
thorax 3.30433 -2.25047 4.83612
lowerneck -21.4491 -3.28034 -12.6886
upperneck 19.7915 -3.48189 12.5332
head 10.3195 -1.104 6.137
rclavicle 1.16289e-014 -2.38542e-015
rhumerus -45.9724 12.3919 -88.897
rradius 31.7935
rwrist -12.4057
rhand -28.134 -30.6653
rfingers 7.12502
rthumb -1.5153 -60.6397
lclavicle 1.16289e-014 -2.38542e-015
lhumerus -10.7798 -24.3278 88.492
lradius 34.8424
lwrist 8.90153
lhand -12.9959 -25.9769
lfingers 7.12502
lthumb 13.0971 3.59181
rfemur -35.8635 3.29589 14.8411
rtibia 31.8023
rfoot -18.0015 -9.68778
rtoes -16.5454
lfemur 2.99576 2.92076 -29.8662
ltibia 5.71448
lfoot -13.2651 3.65174
ltoes -0.0378383
